#!OML:ASF E:\Steps\Project 1\Capture day 1\Session 2\Subject.ASF
:FULLY-SPECIFIED
:DEGREES
381
root 12.2489 17.1005 7.66956 -153.385 -2.17565 176.437
lowerback -30.5888 -3.32348 -8.05999
upperback -2.4073 -2.47246 -0.648535
thorax 13.5068 -1.94878 2.57407
lowerneck -2.66731 -0.726178 -0.512933
upperneck 2.05233 -0.943228 -0.177916
head 1.07157 -0.477225 0.0143211
rclavicle -1.8487e-014 -3.1408e-014
rhumerus -36.5975 -15.9869 -79.7697
rradius 27.5273
rwrist -0.839323
rhand -5.26763 -51.5861
rfingers 7.12502
rthumb 20.5363 -80.5199
lclavicle -1.8487e-014 -3.1408e-014
lhumerus -29.4945 1.30144 82.5406
lradius 18.7825
lwrist -8.07585
lhand -21.1317 -11.6192
lfingers 7.12502
lthumb 5.24719 18.2959
rfemur -20.9053 4.81015 20.9009
rtibia 9.97275
rfoot -23.6436 -4.92496
rtoes -17.2224
lfemur -21.3008 -8.26063 -23.163
ltibia 8.46115
lfoot -8.32106 -3.24668
ltoes -18.3211
382
root 12.2456 17.0959 7.66589 -153.302 -2.16283 176.507
lowerback -30.7991 -3.22405 -7.9605
upperback -2.47032 -2.377 -0.678142
thorax 13.5113 -1.90694 2.51872
lowerneck -2.66155 -0.770142 -0.342157
upperneck 2.13089 -1.00695 -0.222312
head 1.09417 -0.508478 -0.0288373
rclavicle -1.09829e-014 -1.07344e-014
rhumerus -36.4052 -15.7355 -80.0162
rradius 27.879
rwrist -1.33341
rhand -4.95012 -53.0129
rfingers 7.12502
rthumb 20.8413 -81.9135
lclavicle -1.09829e-014 -1.07344e-014
lhumerus -29.4476 0.48429 83.0462
lradius 19.1226
lwrist -7.54722
lhand -20.9116 -11.7408
lfingers 7.12502
lthumb 5.45972 18.1688
rfemur -20.5549 4.2918 21.0185
rtibia 9.04005
rfoot -23.1111 -4.31516
rtoes -17.2275
lfemur -21.4215 -8.36475 -23.0866
ltibia 8.5343
lfoot -8.35743 -3.06273
ltoes -18.3859
383
root 12.2446 17.0944 7.66434 -153.249 -2.20988 176.561
lowerback -30.9306 -3.1469 -7.92115
upperback -2.53468 -2.2988 -0.658186
thorax 13.4857 -1.87427 2.54606
lowerneck -2.77552 -1.03249 -0.150675
upperneck 2.02127 -1.36253 -0.300282
head 1.07757 -0.685845 -0.0908317
rclavicle -2.60905e-014 -3.77691e-014
rhumerus -36.2465 -15.6759 -80.0501
rradius 28.1475
rwrist -1.46093
rhand -4.36511 -53.939
rfingers 7.12502
rthumb 21.4033 -82.7768
lclavicle -2.60905e-014 -3.77691e-014
lhumerus -29.3715 -0.042947 83.5372
lradius 19.4856
lwrist -7.08333
lhand -20.6121 -11.7184
lfingers 7.12502
lthumb 5.74889 18.1836
rfemur -20.9651 4.55703 21.0611
rtibia 9.76636
rfoot -23.475 -4.62756
rtoes -17.4823
lfemur -21.5389 -8.31504 -23.026
ltibia 8.68893
lfoot -8.44343 -3.09484
ltoes -18.8585
384
root 12.2444 17.0944 7.66121 -153.283 -2.26107 176.571
lowerback -30.9177 -3.10211 -7.93649
upperback -2.60788 -2.25697 -0.603364
thorax 13.3941 -1.8575 2.63216
lowerneck -2.97749 -1.37599 -0.0313015
upperneck 1.82619 -1.82137 -0.450782
head 1.04804 -0.916173 -0.165244
rclavicle 1.60022e-014 -9.93923e-015
rhumerus -36.0776 -15.8763 -79.8884
rradius 28.2186
rwrist -1.2094
rhand -4.02074 -54.2505
rfingers 7.12502
rthumb 21.734 -83.0504
lclavicle 1.60022e-014 -9.93923e-015
lhumerus -29.2947 -0.351925 84.0483
lradius 19.8311
lwrist -6.83033
lhand -20.3219 -11.2513
lfingers 7.12502
lthumb 6.02902 18.6429
rfemur -21.0246 4.56048 21.105
rtibia 10.0204
rfoot -23.5902 -4.79427
rtoes -18.3243
lfemur -21.557 -8.23382 -23.0181
ltibia 8.83533
lfoot -8.51921 -3.23945
ltoes -18.9213
385
root 12.2437 17.0944 7.65499 -153.414 -2.32082 176.499
lowerback -30.7954 -3.08727 -8.00827
upperback -2.65669 -2.23015 -0.605693
thorax 13.2829 -1.84683 2.68436
lowerneck -3.01619 -1.38364 -0.158156
upperneck 1.65566 -1.82996 -0.31753
head 1.00356 -0.919194 -0.10299
rclavicle -2.68359e-015 -1.59028e-015
rhumerus -35.9514 -15.944 -79.871
rradius 28.4315
rwrist -1.12327
rhand -4.18627 -54.048
rfingers 7.12502
rthumb 21.5751 -82.8661
lclavicle -2.68359e-015 -1.59028e-015
lhumerus -29.2314 -0.756926 84.5067
lradius 20.1517
lwrist -6.57003
lhand -20.1815 -10.7549
lfingers 7.12502
lthumb 6.16456 19.1354
rfemur -20.8123 4.52847 21.0508
rtibia 9.99029
rfoot -23.5546 -4.90285
rtoes -18.7775
lfemur -21.386 -8.24438 -23.1084
ltibia 8.78873
lfoot -8.45011 -3.30384
ltoes -18.2105
